<svg xmlns="http://www.w3.org/2000/svg" viewBox="0 0 297.36 297.36"><defs><style>.cls-1{fill:#ededed;}.cls-2{fill:#050505;}.cls-3{fill:#cb1e55;}.cls-4{fill:#27aae1;opacity:0.68;}</style></defs><g id="Layer_1" data-name="Layer 1"><circle class="cls-1" cx="148.68" cy="148.68" r="148.68"/><circle class="cls-2" cx="148.56" cy="149.31" r="137.04"/><path class="cls-3" d="M314,551.07a54,54,0,1,1-24.69-102,53.08,53.08,0,0,1,7.5.52h0v29.5l-.06,0A24.45,24.45,0,0,0,288.3,478a24.83,24.83,0,1,0,22.09,38.26,24.49,24.49,0,0,0,3.62-9.34V386.25H343.6c0,.57,0,1.14,0,1.71a39.27,39.27,0,0,0,.24,4.36,34.79,34.79,0,0,0,.87,4.93c4,15.1,19.6,29.83,38,29.83l1.56,0v28.81l-1.68,0c-15.6,0-29.54-5-38.76-12.84v61.2l-.57,6.38a39.66,39.66,0,0,1-2.6,11.32c-3.82,9.55-11.16,18.84-20.95,25.92Z" transform="translate(-155.4 -322.41)"/><path class="cls-4" d="M306.09,543.87a54,54,0,1,1-24.69-102,53.08,53.08,0,0,1,7.5.52h0v29.5l-.06,0a24.45,24.45,0,0,0-8.46-1,24.83,24.83,0,1,0,22.09,38.26,24.49,24.49,0,0,0,3.62-9.34V379.05h29.59c0,.57,0,1.14,0,1.71a39.27,39.27,0,0,0,.24,4.36,34.79,34.79,0,0,0,.87,4.93c4,15.1,19.6,29.83,38,29.83l1.56,0v28.81l-1.68,0c-15.6,0-29.54-5-38.76-12.84V497l-.57,6.38a39.66,39.66,0,0,1-2.6,11.32c-3.82,9.55-11.16,18.84-20.95,25.92Z" transform="translate(-155.4 -322.41)"/></g></svg>