<svg xmlns="http://www.w3.org/2000/svg" viewBox="0 0 333.59 333.53"><defs><style>.cls-1{fill:#cfcfce;}.cls-2{fill:#5ca344;}.cls-3{fill:#fff;}.cls-4{fill:#6dba45;}</style></defs><g id="Layer_2" data-name="Layer 2"><ellipse class="cls-1" cx="166.8" cy="166.77" rx="166.8" ry="166.77"/><circle class="cls-2" cx="166.44" cy="167.62" r="153.46"/><path class="cls-3" d="M370,405.93a80.62,80.62,0,0,1-120.72,69.85,5.26,5.26,0,0,0-4-.52l-24,6.27a5.27,5.27,0,0,1-3-.1h0a5.26,5.26,0,0,1-3.29-3.16l-.15-.38a5.32,5.32,0,0,1-.15-3.3L221,451.78a5.27,5.27,0,0,0-.57-4.14A80.57,80.57,0,1,1,370,405.93Z" transform="translate(-122.6 -243.6)"/><path class="cls-4" d="M231,452a9.73,9.73,0,0,0-1-7.58c-9.45-14.69-11.38-28.86-10.78-43.52,1.26-31.06,27.82-66.16,72.32-65.45s73.13,44.74,67.44,77.75c-2.24,13-2,16.13-9.29,29-11.77,20.77-36.44,36.08-64.84,33.92-14.48-1.1-21.92-3.42-34.51-10.71a4.87,4.87,0,0,0-3.56-.53l-20,4.67Z" transform="translate(-122.6 -243.6)"/><path class="cls-3" d="M269.72,369.2l5.78,15.94s1.77,3.06-1.47,6.66l-4.77,5.53a2.84,2.84,0,0,0-.41,3.11,58.05,58.05,0,0,0,27.67,26.72l.28.12a3.39,3.39,0,0,0,3.65-.66l8.11-7.67a3.3,3.3,0,0,1,3.82-.51l17.3,9.21a3.3,3.3,0,0,1,1.73,3.3c-.39,3.32-1.71,9.41-6.21,12.46,0,0-9.21,7.95-21.25,3.78,0,0-25.57-6.06-38.64-24.79,0,0-17.78-20.15-18.57-35.57,0,0,.42-13.39,8.18-19.33a10.1,10.1,0,0,1,6.06-2l4.14,0a4.19,4.19,0,0,1,3.09,1.28A6.35,6.35,0,0,1,269.72,369.2Z" transform="translate(-122.6 -243.6)"/></g></svg>